<svg width="251" height="64" viewBox="0 0 251 64" fill="none" xmlns="http://www.w3.org/2000/svg">
<g clip-path="url(#clip0_1_1377)">
<g clip-path="url(#clip1_1_1377)">
<g clip-path="url(#clip2_1_1377)">
<g clip-path="url(#clip3_1_1377)">
<g clip-path="url(#clip4_1_1377)">
<path d="M250.412 13.5677C249.232 7.00143 245.869 5.17566 245.869 5.17566C235.544 -1.58735 222.658 -0.129655 211.082 0.841929C190.645 0.88191 170.29 2.32628 149.899 3.10113C107.101 3.21917 63.9359 1.27537 21.3499 6.06919C17.3493 7.53958 -4.15057 6.35794 0.711162 14.4079C1.98545 17.7568 6.63522 21.473 6.49307 24.5458C7.13022 25.0846 8.0155 23.8503 8.39309 24.6251C9.71497 26.713 11.8739 25.7281 13.6445 26.9624C11.1777 30.2585 12.9477 33.0032 14.6351 35.8793C11.662 36.6281 7.8505 36.2733 6.1396 38.7553C5.96254 40.5544 5.00682 40.213 3.95654 40.1343C3.1893 40.0816 1.6434 40.2784 1.90295 40.8432C2.78823 42.7736 -1.0118 43.8899 1.37179 45.781C-0.268038 47.8295 2.5052 49.6026 2.12761 51.8219C2.08001 52.2686 2.33956 52.6494 2.75269 52.7541C4.58163 53.3189 1.91501 54.4225 2.19805 55.6175C20.9602 63.7855 41.3153 58.1388 60.5375 61.8944C65.5287 59.2684 61.7763 62.8266 63.7709 62.2751C65.3282 61.6316 66.461 64.2976 68.2195 62.7873C68.4911 62.3545 68.0779 61.3296 69.0451 61.5269C69.5528 61.6316 70.0014 61.6056 70.0719 61.0015C70.1785 60.0952 69.2462 60.66 68.9981 60.1873C71.6768 57.7973 71.0162 63.4834 73.5292 63.2473C73.4112 62.5512 72.6801 61.5529 74.1784 61.6843C75.6653 60.6861 75.7123 59.8592 77.0341 62.1044C77.0811 62.5905 77.3172 62.9319 77.6948 63.1687C81.8248 60.726 85.9314 64.0349 90.2619 62.9319C92.9171 61.7237 95.4657 63.5888 98.1558 63.1287C99.1001 62.7612 100.056 62.1044 100.965 63.208C112.092 63.4441 123.951 62.4592 134.5 63.2473C162.69 61.7763 192.816 63.8515 222.54 61.9077C229.549 61.1589 236.83 60.0952 243.662 59.2417C243.662 59.2417 249.197 56.9044 249.197 46.3985C249.197 35.8926 250.377 37.2056 250.554 28.8402C250.731 20.4748 251.557 20.1334 250.377 13.5677H250.412Z" fill="#243A7A"/>
<g clip-path="url(#clip5_1_1377)">
<path d="M40.1079 20.9988V38.8216C40.1079 39.1125 40.0482 39.3138 39.9286 39.4254C39.805 39.537 39.5977 39.5928 39.3068 39.5928H36.1978C35.9068 39.5928 35.6996 39.537 35.576 39.4254C35.4564 39.3138 35.3966 39.1125 35.3966 38.8216V20.9988C35.3966 20.7158 35.4445 20.5005 35.5401 20.353C35.9786 19.7113 36.5924 19.0357 37.3816 18.3262C37.5251 18.2106 37.6506 18.1528 37.7583 18.1528C37.8739 18.1528 37.9954 18.2106 38.123 18.3262C38.5534 18.6969 38.9142 19.0497 39.2051 19.3845C39.4961 19.7193 39.7492 20.0421 39.9644 20.353C40.0601 20.5085 40.1079 20.7237 40.1079 20.9988ZM58.8635 30.2958V38.8216C58.8635 39.1125 58.8037 39.3138 58.6841 39.4254C58.5605 39.537 58.3533 39.5928 58.0623 39.5928H55.055C54.764 39.5928 54.5567 39.537 54.4332 39.4254C54.3136 39.3138 54.2538 39.1125 54.2538 38.8216V31.0551C54.2538 29.9949 54.0286 29.2216 53.5782 28.7353C53.1318 28.2491 52.5239 28.0059 51.7547 28.0059C50.9854 28.0059 50.3955 28.1713 49.9849 28.5022C49.5704 28.833 49.2515 29.2495 49.0283 29.7517V38.8216C49.0283 39.1125 48.9665 39.3138 48.843 39.4254C48.7234 39.537 48.5161 39.5928 48.2212 39.5928H45.2138C44.9229 39.5928 44.7176 39.537 44.598 39.4254C44.4745 39.3138 44.4127 39.1125 44.4127 38.8216V26.5889C44.4127 26.3538 44.4625 26.1724 44.5622 26.0449C44.7654 25.7738 45.0106 25.4968 45.2975 25.2138C45.5845 24.9308 45.9373 24.6299 46.3558 24.311C46.4833 24.2114 46.6049 24.1615 46.7205 24.1615C46.8281 24.1615 46.9497 24.2114 47.0852 24.311C47.4918 24.6299 47.8425 24.9368 48.1375 25.2317C48.4284 25.5227 48.6855 25.8236 48.9087 26.1345H48.9805C49.1479 25.9193 49.397 25.6682 49.7278 25.3812C50.0587 25.0942 50.523 24.8391 51.1209 24.6159C51.7188 24.3927 52.4861 24.2811 53.4227 24.2811C54.3355 24.2811 55.2064 24.4665 56.0355 24.8371C56.8606 25.2078 57.5382 25.8296 58.0683 26.7025C58.5984 27.5794 58.8635 28.7772 58.8635 30.2958ZM66.9647 39.9576C65.9244 39.9576 65.0615 39.8699 64.3759 39.6945C63.6864 39.5191 63.1363 39.3079 62.7258 39.0607C62.3112 38.8136 61.9864 38.5864 61.7512 38.3791C61.5758 38.2157 61.5579 38.0324 61.6974 37.8291L63.1861 35.6229C63.3974 35.312 63.6405 35.2921 63.9156 35.5631C64.1946 35.8382 64.5752 36.1032 65.0575 36.3583C65.5398 36.6174 66.1417 36.7469 66.8631 36.7469C67.5048 36.7469 68.033 36.6373 68.4475 36.4181C68.858 36.1989 69.0633 35.88 69.0633 35.4615C69.0633 35.1705 68.9716 34.9314 68.7883 34.744C68.6049 34.5607 68.2781 34.3714 67.8078 34.176C67.3414 33.9807 66.6897 33.7336 65.8527 33.4347C64.6171 32.9843 63.6844 32.4442 63.0546 31.8144C62.4209 31.1807 62.104 30.2559 62.104 29.0402C62.104 27.9202 62.4129 27.0094 63.0307 26.3079C63.6485 25.6104 64.4417 25.0982 65.4103 24.7714C66.3788 24.4445 67.3873 24.2811 68.4355 24.2811C69.7708 24.2811 70.7075 24.4047 71.2456 24.6518C71.7877 24.8989 72.1364 25.0922 72.2919 25.2317C72.4393 25.3553 72.541 25.5008 72.5968 25.6682C72.7243 26.0469 72.822 26.5471 72.8898 27.1689C72.9296 27.5316 72.8379 27.7707 72.6147 27.8863C72.4951 27.9541 72.3098 28.0278 72.0587 28.1076C71.8036 28.1833 71.5505 28.251 71.2994 28.3108C71.0483 28.3666 70.8589 28.3945 70.7314 28.3945C70.6915 28.3945 70.6497 28.3826 70.6058 28.3587C70.562 28.3347 70.4863 28.275 70.3786 28.1793C70.2511 28.0518 70.0359 27.9063 69.7329 27.7428C69.426 27.5754 69.0035 27.4917 68.4654 27.4917C67.9433 27.4917 67.5028 27.5774 67.1441 27.7488C66.7894 27.9202 66.612 28.2192 66.612 28.6456C66.612 29.112 66.8392 29.4628 67.2936 29.6979C67.744 29.9291 68.4913 30.23 69.5356 30.6007C70.3527 30.8837 71.0642 31.1926 71.6701 31.5274C72.2799 31.8622 72.7502 32.3007 73.0811 32.8428C73.4119 33.3809 73.5773 34.1083 73.5773 35.025C73.5773 36.2128 73.2525 37.1694 72.6028 37.8949C71.9571 38.6163 71.13 39.1404 70.1216 39.4673C69.1171 39.7941 68.0648 39.9576 66.9647 39.9576ZM75.7476 19.7432C75.7476 19.6157 75.7875 19.5041 75.8672 19.4084C75.9429 19.3087 76.0446 19.1812 76.1721 19.0257C76.4471 18.7148 76.764 18.386 77.1227 18.0392C77.4815 17.6965 77.8462 17.3636 78.2169 17.0408C78.452 16.8574 78.6274 16.7658 78.743 16.7658C78.8586 16.7658 79.038 16.8574 79.2811 17.0408C80.0703 17.7224 80.7419 18.384 81.296 19.0257C81.4235 19.1732 81.5291 19.2968 81.6128 19.3964C81.6925 19.5001 81.7324 19.6157 81.7324 19.7432C81.7324 19.8668 81.6925 19.9784 81.6128 20.078C81.5291 20.1737 81.4195 20.3052 81.284 20.4726C81.0209 20.7716 80.714 21.0944 80.3633 21.4412C80.0125 21.788 79.6518 22.1168 79.2811 22.4277C79.1456 22.5433 79.038 22.619 78.9582 22.6549C78.8825 22.6868 78.8108 22.7027 78.743 22.7027C78.6752 22.7027 78.6035 22.6868 78.5278 22.6549C78.456 22.619 78.3424 22.5433 78.187 22.4277C77.7964 22.1168 77.4316 21.788 77.0928 21.4412C76.7541 21.0944 76.4471 20.7616 76.1721 20.4427C76.0446 20.2873 75.9429 20.1637 75.8672 20.072C75.7875 19.9764 75.7476 19.8668 75.7476 19.7432ZM81.0329 25.4171V38.8216C81.0329 39.1125 80.9731 39.3138 80.8535 39.4254C80.73 39.537 80.5227 39.5928 80.2317 39.5928H77.2244C76.9334 39.5928 76.7262 39.537 76.6026 39.4254C76.483 39.3138 76.4232 39.1125 76.4232 38.8216V25.4171C76.4232 25.1261 76.483 24.9248 76.6026 24.8132C76.7262 24.7016 76.9334 24.6458 77.2244 24.6458H80.2317C80.5227 24.6458 80.73 24.7016 80.8535 24.8132C80.9731 24.9248 81.0329 25.1261 81.0329 25.4171ZM99.4536 26.0449V37.8829C99.4536 40.7248 98.6425 42.8912 97.0202 44.3819C95.402 45.8686 93.1818 46.612 90.3598 46.612C89.192 46.612 88.2672 46.5283 87.5857 46.3609C86.9041 46.1895 86.3879 46.026 86.0371 45.8706C85.8139 45.763 85.6685 45.6514 85.6007 45.5358C85.505 45.3803 85.3954 45.1511 85.2719 44.8482C85.1523 44.5453 85.0387 44.2145 84.9311 43.8557C84.8992 43.7202 84.8932 43.6186 84.9131 43.5508C84.953 43.4512 85.0267 43.3475 85.1343 43.2399C85.3097 43.0645 85.5608 42.8613 85.8877 42.6301C86.2105 42.3949 86.4596 42.2434 86.635 42.1757C86.8224 42.1079 86.9938 42.1179 87.1492 42.2056C87.4003 42.3411 87.763 42.4946 88.2374 42.666C88.7077 42.8373 89.3713 42.923 90.2283 42.923C91.5915 42.923 92.7015 42.5723 93.5585 41.8708C94.4115 41.1693 94.838 40.0891 94.838 38.6303V38.1041H94.7841C94.5689 38.3752 94.2919 38.6522 93.9531 38.9352C93.6103 39.2182 93.1699 39.4573 92.6318 39.6526C92.0897 39.8479 91.3962 39.9456 90.5512 39.9456C89.0804 39.9456 87.8746 39.6267 86.934 38.989C85.9973 38.3512 85.3077 37.4724 84.8653 36.3523C84.4229 35.2323 84.2017 33.9568 84.2017 32.5259C84.2017 30.9594 84.4587 29.5544 84.9729 28.3108C85.4871 27.0633 86.354 26.0768 87.5737 25.3513C88.7894 24.6299 90.4535 24.2692 92.566 24.2692C93.8295 24.2692 94.8918 24.3608 95.7527 24.5442C96.6137 24.7275 97.3371 24.9567 97.923 25.2317C98.505 25.5028 99.0152 25.7738 99.4536 26.0449ZM92.4046 27.7967C91.2766 27.7967 90.4156 28.1773 89.8217 28.9386C89.2278 29.6959 88.9309 30.8737 88.9309 32.4721C88.9309 34.9712 89.9612 36.2208 92.0219 36.2208C92.8311 36.2208 93.4489 36.0554 93.8754 35.7246C94.3058 35.3937 94.6267 34.9752 94.838 34.469V28.4424C94.6267 28.2869 94.3258 28.1414 93.9352 28.0059C93.5445 27.8664 93.0343 27.7967 92.4046 27.7967ZM108.003 29.7517V38.8216C108.003 39.1125 107.944 39.3138 107.824 39.4254C107.7 39.537 107.493 39.5928 107.202 39.5928H104.195C103.904 39.5928 103.697 39.537 103.573 39.4254C103.453 39.3138 103.394 39.1125 103.394 38.8216V19.0676C103.394 18.8364 103.441 18.6571 103.537 18.5295C103.948 17.9954 104.548 17.4174 105.337 16.7956C105.472 16.696 105.594 16.6462 105.701 16.6462C105.825 16.6462 105.947 16.696 106.066 16.7956C106.485 17.1145 106.837 17.4155 107.124 17.6985C107.411 17.9814 107.657 18.2585 107.86 18.5295C107.955 18.6571 108.003 18.8364 108.003 19.0676V26.1465H108.063C108.278 25.8675 108.555 25.5845 108.894 25.2975C109.237 25.0105 109.693 24.7694 110.263 24.5741C110.829 24.3788 111.557 24.2811 112.446 24.2811C113.338 24.2811 114.199 24.4665 115.028 24.8371C115.853 25.2078 116.529 25.8296 117.055 26.7025C117.581 27.5794 117.844 28.7772 117.844 30.2958V38.8216C117.844 39.1125 117.783 39.3138 117.659 39.4254C117.539 39.537 117.334 39.5928 117.043 39.5928H114.036C113.741 39.5928 113.534 39.537 113.414 39.4254C113.291 39.3138 113.229 39.1125 113.229 38.8216V31.097C113.229 30.0168 113.006 29.2316 112.559 28.7413C112.113 28.251 111.505 28.0059 110.736 28.0059C109.974 28.0059 109.386 28.1713 108.972 28.5022C108.553 28.833 108.23 29.2495 108.003 29.7517ZM127.697 39.9576C124.445 39.9576 122.819 38.2695 122.819 34.8935V28.0478H121.169C120.878 28.0478 120.676 27.986 120.565 27.8624C120.453 27.7428 120.397 27.5376 120.397 27.2466V25.447C120.397 25.156 120.453 24.9507 120.565 24.8312C120.676 24.7076 120.878 24.6458 121.169 24.6458H122.819V22.2962C122.819 22.061 122.869 21.8816 122.968 21.7581C123.375 21.22 123.973 20.64 124.762 20.0182C124.897 19.9226 125.019 19.8747 125.127 19.8747C125.242 19.8747 125.358 19.9226 125.473 20.0182C125.892 20.3411 126.245 20.642 126.532 20.921C126.823 21.204 127.07 21.483 127.273 21.7581C127.369 21.8816 127.416 22.061 127.416 22.2962V24.6458H129.999C130.294 24.6458 130.498 24.7076 130.609 24.8312C130.721 24.9507 130.777 25.156 130.777 25.447V27.2466C130.777 27.5376 130.721 27.7428 130.609 27.8624C130.498 27.986 130.294 28.0478 129.999 28.0478H127.416V34.0923C127.416 35.6468 127.98 36.4241 129.108 36.4241C129.284 36.4241 129.445 36.4081 129.593 36.3762C129.74 36.3404 129.866 36.3025 129.969 36.2626C130.177 36.1869 130.32 36.159 130.4 36.1789C130.484 36.1989 130.559 36.3045 130.627 36.4958L131.476 38.7618C131.564 39.0049 131.506 39.1803 131.303 39.2879C131.155 39.3557 130.802 39.4832 130.244 39.6706C129.682 39.8619 128.833 39.9576 127.697 39.9576ZM150.447 32.6036C150.196 32.6036 149.983 32.5398 149.807 32.4123C149.62 32.2847 149.401 32.1034 149.149 31.8682C148.894 31.637 148.611 31.3501 148.3 31.0073C148.185 30.8718 148.127 30.7502 148.127 30.6426C148.127 30.5389 148.185 30.4174 148.3 30.2779C148.906 29.5963 149.456 29.0961 149.951 28.7772C150.07 28.6975 150.236 28.6576 150.447 28.6576C151.109 28.6576 151.68 28.4105 152.163 27.9162C152.645 27.418 152.876 26.6148 152.856 25.5068C152.848 24.311 152.553 23.474 151.971 22.9957C151.394 22.5174 150.604 22.2782 149.604 22.2782H148.898C148.257 22.2782 147.82 22.4157 147.589 22.6908C147.354 22.9618 147.236 23.4281 147.236 24.0898V38.8216C147.236 39.1125 147.176 39.3138 147.057 39.4254C146.933 39.537 146.726 39.5928 146.435 39.5928H143.326C143.035 39.5928 142.828 39.537 142.704 39.4254C142.585 39.3138 142.525 39.1125 142.525 38.8216V22.5712C142.525 21.5986 142.615 20.8274 142.794 20.2574C142.973 19.6914 143.322 19.2828 143.84 19.0317C144.362 18.7846 145.126 18.661 146.13 18.661H149.604C152.394 18.661 154.461 19.2091 155.804 20.3052C157.147 21.3973 157.819 23.0734 157.819 25.3334C157.819 27.0274 157.466 28.4085 156.76 29.4767C156.055 30.5489 155.14 31.3381 154.016 31.8443C152.892 32.3505 151.702 32.6036 150.447 32.6036ZM167.833 39.9576C165.378 39.9576 163.437 39.3059 162.01 38.0025C160.579 36.6991 159.863 34.758 159.863 32.1791C159.863 29.5325 160.605 27.5535 162.088 26.2422C163.57 24.9348 165.553 24.2811 168.037 24.2811C170.428 24.2811 172.345 24.9248 173.788 26.2123C175.227 27.5037 175.946 29.405 175.946 31.9161C175.946 34.5348 175.227 36.5297 173.788 37.9008C172.345 39.272 170.36 39.9576 167.833 39.9576ZM167.977 36.4241C169.049 36.4241 169.856 36.0913 170.398 35.4256C170.944 34.76 171.217 33.618 171.217 31.9998C171.217 30.4652 170.942 29.383 170.392 28.7533C169.842 28.1275 169.027 27.8146 167.947 27.8146C166.907 27.8146 166.087 28.1514 165.49 28.825C164.892 29.5026 164.593 30.6007 164.593 32.1193C164.593 33.7057 164.878 34.8198 165.448 35.4615C166.014 36.1032 166.857 36.4241 167.977 36.4241ZM183.247 39.9576C182.202 39.9576 181.337 39.8699 180.652 39.6945C179.966 39.5191 179.416 39.3079 179.002 39.0607C178.591 38.8136 178.268 38.5864 178.033 38.3791C177.858 38.2157 177.838 38.0324 177.973 37.8291L179.462 35.6229C179.677 35.312 179.92 35.2921 180.191 35.5631C180.474 35.8382 180.857 36.1032 181.339 36.3583C181.822 36.6174 182.422 36.7469 183.139 36.7469C183.785 36.7469 184.313 36.6373 184.723 36.4181C185.138 36.1989 185.345 35.88 185.345 35.4615C185.345 35.1705 185.253 34.9314 185.07 34.744C184.883 34.5607 184.556 34.3714 184.09 34.176C183.623 33.9807 182.972 33.7336 182.135 33.4347C180.899 32.9843 179.964 32.4442 179.33 31.8144C178.701 31.1807 178.386 30.2559 178.386 29.0402C178.386 27.9202 178.695 27.0094 179.313 26.3079C179.93 25.6104 180.724 25.0982 181.692 24.7714C182.657 24.4445 183.665 24.2811 184.717 24.2811C186.053 24.2811 186.989 24.4047 187.527 24.6518C188.07 24.8989 188.418 25.0922 188.574 25.2317C188.717 25.3553 188.819 25.5008 188.879 25.6682C189.006 26.0469 189.104 26.5471 189.172 27.1689C189.211 27.5316 189.118 27.7707 188.891 27.8863C188.775 27.9541 188.592 28.0278 188.341 28.1076C188.085 28.1833 187.832 28.251 187.581 28.3108C187.326 28.3666 187.135 28.3945 187.007 28.3945C186.971 28.3945 186.932 28.3826 186.888 28.3587C186.844 28.3347 186.768 28.275 186.661 28.1793C186.533 28.0518 186.316 27.9063 186.009 27.7428C185.702 27.5754 185.281 27.4917 184.747 27.4917C184.221 27.4917 183.781 27.5774 183.426 27.7488C183.071 27.9202 182.894 28.2192 182.894 28.6456C182.894 29.112 183.121 29.4628 183.575 29.6979C184.026 29.9291 184.771 30.23 185.812 30.6007C186.629 30.8837 187.342 31.1926 187.952 31.5274C188.562 31.8622 189.032 32.3007 189.363 32.8428C189.694 33.3809 189.859 34.1083 189.859 35.025C189.859 36.2128 189.534 37.1694 188.885 37.8949C188.239 38.6163 187.412 39.1404 186.403 39.4673C185.395 39.7941 184.343 39.9576 183.247 39.9576ZM198.612 39.9576C195.364 39.9576 193.739 38.2695 193.739 34.8935V28.0478H192.089C191.798 28.0478 191.595 27.986 191.479 27.8624C191.368 27.7428 191.312 27.5376 191.312 27.2466V25.447C191.312 25.156 191.368 24.9507 191.479 24.8312C191.595 24.7076 191.798 24.6458 192.089 24.6458H193.739V22.2962C193.739 22.061 193.787 21.8816 193.883 21.7581C194.293 21.22 194.891 20.64 195.677 20.0182C195.816 19.9226 195.938 19.8747 196.041 19.8747C196.161 19.8747 196.278 19.9226 196.394 20.0182C196.813 20.3411 197.165 20.642 197.452 20.921C197.739 21.204 197.984 21.483 198.188 21.7581C198.287 21.8816 198.337 22.061 198.337 22.2962V24.6458H200.92C201.211 24.6458 201.412 24.7076 201.524 24.8312C201.635 24.9507 201.691 25.156 201.691 25.447V27.2466C201.691 27.5376 201.635 27.7428 201.524 27.8624C201.412 27.986 201.211 28.0478 200.92 28.0478H198.337V34.0923C198.337 35.6468 198.901 36.4241 200.029 36.4241C200.204 36.4241 200.366 36.4081 200.513 36.3762C200.657 36.3404 200.782 36.3025 200.89 36.2626C201.093 36.1869 201.237 36.159 201.321 36.1789C201.404 36.1989 201.48 36.3045 201.548 36.4958L202.391 38.7618C202.478 39.0049 202.421 39.1803 202.217 39.2879C202.074 39.3557 201.721 39.4832 201.159 39.6706C200.601 39.8619 199.752 39.9576 198.612 39.9576ZM208.991 39.9576C207.947 39.9576 207.082 39.8699 206.397 39.6945C205.711 39.5191 205.161 39.3079 204.746 39.0607C204.336 38.8136 204.013 38.5864 203.778 38.3791C203.602 38.2157 203.583 38.0324 203.718 37.8291L205.207 35.6229C205.422 35.312 205.665 35.2921 205.936 35.5631C206.219 35.8382 206.602 36.1032 207.084 36.3583C207.566 36.6174 208.168 36.7469 208.89 36.7469C209.531 36.7469 210.06 36.6373 210.474 36.4181C210.885 36.1989 211.09 35.88 211.09 35.4615C211.09 35.1705 210.998 34.9314 210.815 34.744C210.632 34.5607 210.305 34.3714 209.834 34.176C209.368 33.9807 208.716 33.7336 207.879 33.4347C206.644 32.9843 205.709 32.4442 205.075 31.8144C204.445 31.1807 204.131 30.2559 204.131 29.0402C204.131 27.9202 204.439 27.0094 205.057 26.3079C205.675 25.6104 206.468 25.0982 207.437 24.7714C208.405 24.4445 209.414 24.2811 210.462 24.2811C211.797 24.2811 212.734 24.4047 213.272 24.6518C213.814 24.8989 214.163 25.0922 214.318 25.2317C214.462 25.3553 214.564 25.5008 214.623 25.6682C214.751 26.0469 214.849 26.5471 214.916 27.1689C214.956 27.5316 214.865 27.7707 214.641 27.8863C214.522 27.9541 214.336 28.0278 214.085 28.1076C213.83 28.1833 213.577 28.251 213.326 28.3108C213.071 28.3666 212.882 28.3945 212.758 28.3945C212.718 28.3945 212.676 28.3826 212.632 28.3587C212.589 28.3347 212.513 28.275 212.405 28.1793C212.278 28.0518 212.06 27.9063 211.754 27.7428C211.447 27.5754 211.026 27.4917 210.492 27.4917C209.966 27.4917 209.525 27.5774 209.171 27.7488C208.816 27.9202 208.639 28.2192 208.639 28.6456C208.639 29.112 208.866 29.4628 209.32 29.6979C209.771 29.9291 210.516 30.23 211.556 30.6007C212.373 30.8837 213.087 31.1926 213.697 31.5274C214.307 31.8622 214.777 32.3007 215.108 32.8428C215.438 33.3809 215.604 34.1083 215.604 35.025C215.604 36.2128 215.279 37.1694 214.629 37.8949C213.984 38.6163 213.157 39.1404 212.148 39.4673C211.144 39.7941 210.091 39.9576 208.991 39.9576Z" fill="white"/>
</g>
</g>
</g>
</g>
</g>
</g>
<defs>
<clipPath id="clip0_1_1377">
<rect width="251" height="63.2582" fill="white"/>
</clipPath>
<clipPath id="clip1_1_1377">
<rect width="251" height="63.2582" fill="white"/>
</clipPath>
<clipPath id="clip2_1_1377">
<rect width="251" height="63.2582" fill="white"/>
</clipPath>
<clipPath id="clip3_1_1377">
<rect width="251" height="63.2582" fill="white"/>
</clipPath>
<clipPath id="clip4_1_1377">
<rect width="251" height="63.2582" fill="white"/>
</clipPath>
<clipPath id="clip5_1_1377">
<rect width="180.218" height="29.9658" fill="white" transform="translate(35.391 16.6462)"/>
</clipPath>
</defs>
</svg>
