<svg width="18" height="16" viewBox="0 0 18 16" fill="none" xmlns="http://www.w3.org/2000/svg">
<path d="M12.3333 14V12.6667C12.3333 11.9594 12.0524 11.2811 11.5523 10.781C11.0522 10.281 10.3739 10 9.66667 10H4.33334C3.62609 10 2.94782 10.281 2.44772 10.781C1.94762 11.2811 1.66667 11.9594 1.66667 12.6667V14" stroke="white" stroke-width="2" stroke-linecap="round" stroke-linejoin="round"/>
<path d="M6.99999 7.33333C8.47275 7.33333 9.66666 6.13943 9.66666 4.66667C9.66666 3.19391 8.47275 2 6.99999 2C5.52724 2 4.33333 3.19391 4.33333 4.66667C4.33333 6.13943 5.52724 7.33333 6.99999 7.33333Z" stroke="white" stroke-width="2" stroke-linecap="round" stroke-linejoin="round"/>
<path d="M16.3333 14V12.6667C16.3329 12.0758 16.1362 11.5019 15.7742 11.0349C15.4122 10.5679 14.9054 10.2344 14.3333 10.0867" stroke="white" stroke-width="2" stroke-linecap="round" stroke-linejoin="round"/>
<path d="M11.6667 2.08667C12.2403 2.23354 12.7487 2.56714 13.1118 3.03488C13.4748 3.50262 13.6719 4.07789 13.6719 4.67C13.6719 5.26212 13.4748 5.83739 13.1118 6.30513C12.7487 6.77287 12.2403 7.10647 11.6667 7.25334" stroke="white" stroke-width="2" stroke-linecap="round" stroke-linejoin="round"/>
</svg>
